<svg id="Camada_1" data-name="Camada 1" xmlns="http://www.w3.org/2000/svg" viewBox="0 0 67 14.35"><defs><style>.cls-1{fill:#fff;}</style></defs><path class="cls-1" d="M21.69,4.39a1.85,1.85,0,0,0-1.3.42,2.14,2.14,0,0,0-.51,1.61V9.87a2.32,2.32,0,0,0,.51,1.61,1.89,1.89,0,0,0,1.3.41,1.88,1.88,0,0,0,1.3-.41,2.27,2.27,0,0,0,.52-1.61V6.42A2.14,2.14,0,0,0,23,4.81,1.8,1.8,0,0,0,21.69,4.39Z" transform="translate(0 -0.95)"/><path class="cls-1" d="M13,4.48H12V7.82h1.07a1.74,1.74,0,0,0,1.27-.31,1.75,1.75,0,0,0,.38-1.36V6a1.57,1.57,0,0,0-.39-1.25A2,2,0,0,0,13,4.48Z" transform="translate(0 -0.95)"/><path class="cls-1" d="M0,1V15.3H27.5V1ZM9,6.22c0,2.37-1.23,3.5-3.83,3.5h-1v3.54c0,.19-.1.28-.3.28H2.2c-.21,0-.3-.09-.3-.28V3c0-.21.07-.28.3-.28H5.13a4.43,4.43,0,0,1,2.8.67A3.09,3.09,0,0,1,9,6.07Zm7.69,7.32H15.16c-.28,0-.38,0-.48-.25-.48-1.08-1.14-2.45-1.84-3.74H12v3.74a.23.23,0,0,1-.26.25H10c-.17,0-.24-.09-.24-.25V3A.23.23,0,0,1,10,2.74H13.3c2.28,0,3.62.85,3.62,3.21v.23a3,3,0,0,1-2.05,3.16c.61,1,1.49,2.65,2.08,3.86C17,13.38,17,13.54,16.65,13.54Zm9.05-3.45c0,2.4-1.54,3.6-4,3.6s-4-1.2-4-3.6V6.2c0-2.4,1.59-3.61,4-3.61s4,1.21,4,3.61Z" transform="translate(0 -0.95)"/><path class="cls-1" d="M6.32,4.81a2,2,0,0,0-1.44-.33H4.09V8h.7C5.65,8,6,7.9,6.35,7.61A1.88,1.88,0,0,0,6.74,6.2V6.09A1.59,1.59,0,0,0,6.32,4.81Z" transform="translate(0 -0.95)"/><path class="cls-1" d="M33,2c.19,0,.3,0,.3.18V4.54h2.36a.23.23,0,0,1,.24.31l-.22,1.26a.22.22,0,0,1-.25.19H33.25v4.25c0,1.08.36,1.47,1.1,1.47a5.93,5.93,0,0,0,1.2-.12c.25-.07.39,0,.34.32l-.23,1c0,.21-.11.32-.31.38a6.27,6.27,0,0,1-1.45.17c-2.18,0-3-1.05-3-3.09V6.3H29.57a.23.23,0,0,1-.25-.25V4.74c0-.12.1-.2.24-.2h1.37V2.61c0-.17,0-.25.22-.3Z" transform="translate(0 -0.95)"/><path class="cls-1" d="M38.18,4.54c.21,0,.31.08.33.26l.08.8a3.13,3.13,0,0,1,2.5-1.19,2.39,2.39,0,0,1,.42,0c.14,0,.22.07.22.23V6.05c0,.22-.09.3-.34.3A4.89,4.89,0,0,0,38.74,7v6.3c0,.2-.06.31-.34.31H36.77c-.24,0-.35-.11-.35-.31V4.79c0-.17.1-.25.27-.25Z" transform="translate(0 -0.95)"/><path class="cls-1" d="M42.39,5.13c0-.21,0-.3.23-.36a10.37,10.37,0,0,1,3-.4,4.09,4.09,0,0,1,2.79.77,2.93,2.93,0,0,1,.84,2.32V11.4c0,.67.05,1.3.11,2,0,.19,0,.28-.25.28h-1.4c-.22,0-.31-.06-.36-.2a3.66,3.66,0,0,1-.14-.52,3.38,3.38,0,0,1-2.37.89,3.42,3.42,0,0,1-2.21-.62A2.71,2.71,0,0,1,41.67,11v-.14a2.4,2.4,0,0,1,.84-2.07,4.26,4.26,0,0,1,2.6-.62c.62,0,1.32,0,1.79.06V7.58a1.31,1.31,0,0,0-.31-.94,2,2,0,0,0-1.53-.42,10.49,10.49,0,0,0-2.3.31c-.23.06-.37,0-.37-.2ZM44,11c0,.68.37,1.05,1.26,1.05a2.55,2.55,0,0,0,1.63-.63V9.89c-.36,0-.9-.05-1.46-.05a2,2,0,0,0-1.09.22.9.9,0,0,0-.34.83Z" transform="translate(0 -0.95)"/><path class="cls-1" d="M56,1.72a.3.3,0,0,1,.25-.34l1.74-.2q.33,0,.33.24v10a16.41,16.41,0,0,0,.12,1.9c0,.23,0,.29-.34.29H56.83c-.31,0-.43-.08-.48-.26l-.14-.53a3.7,3.7,0,0,1-2.68,1A3.6,3.6,0,0,1,51.1,13a3.35,3.35,0,0,1-.88-2.6V7.78a3.34,3.34,0,0,1,.88-2.59,3.71,3.71,0,0,1,2.5-.82A4.6,4.6,0,0,1,56,5ZM52.55,10c0,.86.1,1.25.39,1.56a1.85,1.85,0,0,0,1.28.4A3.3,3.3,0,0,0,56,11.56v-5a4,4,0,0,0-1.75-.39,1.78,1.78,0,0,0-1.26.39,2.1,2.1,0,0,0-.39,1.56Z" transform="translate(0 -0.95)"/><path class="cls-1" d="M59.32,8.06c0-2.42,1.64-3.69,3.94-3.69S67,5.62,67,8V9.56c0,.3-.14.43-.47.43H61.64v.36c0,1.14.8,1.64,2.18,1.64a9.29,9.29,0,0,0,2.35-.28c.32-.09.46,0,.38.31l-.19,1.07a.47.47,0,0,1-.4.44,8.38,8.38,0,0,1-2.18.28c-2.85,0-4.46-1.13-4.46-3.68Zm2.32.26h3V7.8c0-1.1-.44-1.75-1.43-1.75s-1.61.57-1.61,1.75Z" transform="translate(0 -0.95)"/></svg>